<svg width="20" height="20" viewBox="0 0 20 20" fill="none" xmlns="http://www.w3.org/2000/svg">
<g id="fluent:text-description-32-regular">
<path id="Vector" d="M1.72619 3.75C1.5999 3.75 1.47878 3.81585 1.38947 3.93306C1.30017 4.05027 1.25 4.20924 1.25 4.375C1.25 4.54076 1.30017 4.69973 1.38947 4.81694C1.47878 4.93415 1.5999 5 1.72619 5H14.1071C14.2334 5 14.3546 4.93415 14.4439 4.81694C14.5332 4.69973 14.5833 4.54076 14.5833 4.375C14.5833 4.20924 14.5332 4.05027 14.4439 3.93306C14.3546 3.81585 14.2334 3.75 14.1071 3.75H1.72619ZM1.72619 7.5C1.5999 7.5 1.47878 7.56585 1.38947 7.68306C1.30017 7.80027 1.25 7.95924 1.25 8.125C1.25 8.29076 1.30017 8.44973 1.38947 8.56694C1.47878 8.68415 1.5999 8.75 1.72619 8.75H14.1071C14.2334 8.75 14.3546 8.68415 14.4439 8.56694C14.5332 8.44973 14.5833 8.29076 14.5833 8.125C14.5833 7.95924 14.5332 7.80027 14.4439 7.68306C14.3546 7.56585 14.2334 7.5 14.1071 7.5H1.72619ZM1.25 11.875C1.25 12.0408 1.30017 12.1997 1.38947 12.3169C1.47878 12.4342 1.5999 12.5 1.72619 12.5H14.1071C14.2334 12.5 14.3546 12.4342 14.4439 12.3169C14.5332 12.1997 14.5833 12.0408 14.5833 11.875C14.5833 11.7092 14.5332 11.5503 14.4439 11.4331C14.3546 11.3158 14.2334 11.25 14.1071 11.25H1.72619C1.5999 11.25 1.47878 11.3158 1.38947 11.4331C1.30017 11.5503 1.25 11.7092 1.25 11.875ZM1.72619 15C1.5999 15 1.47878 15.0658 1.38947 15.1831C1.30017 15.3003 1.25 15.4592 1.25 15.625C1.25 15.7908 1.30017 15.9497 1.38947 16.0669C1.47878 16.1842 1.5999 16.25 1.72619 16.25H9.82143C9.94772 16.25 10.0688 16.1842 10.1581 16.0669C10.2474 15.9497 10.2976 15.7908 10.2976 15.625C10.2976 15.4592 10.2474 15.3003 10.1581 15.1831C10.0688 15.0658 9.94772 15 9.82143 15H1.72619Z" fill="#264653"/>
</g>
</svg>
