<svg width="16" height="16" viewBox="0 0 16 16" fill="none" xmlns="http://www.w3.org/2000/svg">
<g id="ion:share-social">
<path id="Vector" d="M11.9993 10.4998C11.7299 10.4997 11.4633 10.5542 11.2156 10.6601C10.9679 10.7659 10.7442 10.9208 10.558 11.1155L5.93304 8.51328C6.02263 8.17685 6.02263 7.82283 5.93304 7.4864L10.558 4.88422C10.8948 5.23339 11.3474 5.44778 11.8309 5.48724C12.3144 5.5267 12.7957 5.38851 13.1847 5.09857C13.5736 4.80863 13.8435 4.38682 13.9438 3.91217C14.044 3.43753 13.9678 2.9426 13.7293 2.52013C13.4909 2.09765 13.1066 1.77661 12.6484 1.61714C12.1903 1.45767 11.6897 1.47073 11.2404 1.65386C10.7912 1.83698 10.4242 2.17762 10.2081 2.61195C9.99195 3.04628 9.94161 3.5445 10.0665 4.01328L5.44148 6.61547C5.16522 6.32741 4.80908 6.12861 4.4189 6.04462C4.02872 5.96064 3.62233 5.99531 3.25201 6.14419C2.8817 6.29307 2.5644 6.54934 2.34093 6.88003C2.11746 7.21073 1.99805 7.60072 1.99805 7.99984C1.99805 8.39896 2.11746 8.78896 2.34093 9.11965C2.5644 9.45034 2.8817 9.70661 3.25201 9.85549C3.62233 10.0044 4.02872 10.039 4.4189 9.95506C4.80908 9.87108 5.16522 9.67227 5.44148 9.38422L10.0665 11.9864C9.95925 12.3901 9.98111 12.8173 10.129 13.2079C10.2769 13.5986 10.5434 13.9331 10.8911 14.1646C11.2388 14.3961 11.6502 14.5129 12.0677 14.4987C12.4851 14.4844 12.8877 14.3398 13.2188 14.0852C13.5499 13.8305 13.7929 13.4786 13.9138 13.0788C14.0347 12.6789 14.0274 12.2513 13.8929 11.8558C13.7584 11.4604 13.5035 11.1169 13.1639 10.8738C12.8242 10.6306 12.417 10.4998 11.9993 10.4998Z" fill="#264653"/>
</g>
</svg>
