<svg width="16" height="16" viewBox="0 0 16 16" fill="none" xmlns="http://www.w3.org/2000/svg">
<g id="lets-icons:img-load-box-fill">
<g id="Group">
<path id="Vector" fill-rule="evenodd" clip-rule="evenodd" d="M1.3447 4.99676C1.33203 5.48276 1.33203 6.03476 1.33203 6.66676V8.0001H6.73003C6.5027 7.89304 6.25874 7.82563 6.0087 7.80076L4.66536 7.66676C3.79003 7.57943 3.35203 7.53543 2.9967 7.39143C2.62443 7.24049 2.29108 7.00741 2.02153 6.70957C1.75198 6.41174 1.5532 6.05686 1.44003 5.67143C1.3847 5.4821 1.35736 5.2741 1.3447 4.99676ZM14.5814 3.8501L14.332 11.3334C14.0151 11.3335 13.7012 11.2711 13.4084 11.1498C13.1156 11.0286 12.8495 10.8509 12.6254 10.6268L11.8734 9.87476C11.6267 9.6281 11.5034 9.50476 11.3787 9.4261C11.1653 9.29097 10.9179 9.21923 10.6654 9.21923C10.4128 9.21923 10.1654 9.29097 9.95203 9.4261C9.82736 9.50476 9.70403 9.6281 9.45736 9.87476L8.94136 10.3908C8.86404 10.4678 8.76564 10.5202 8.65858 10.5413C8.55152 10.5625 8.44059 10.5515 8.33977 10.5097C8.23896 10.468 8.15276 10.3973 8.09207 10.3066C8.03137 10.2159 7.99888 10.1092 7.9987 10.0001V14.6668H9.33203C11.846 14.6668 13.1034 14.6668 13.884 13.8854C14.6654 13.1048 14.6654 11.8474 14.6654 9.33343V6.66676C14.6654 5.47143 14.6654 4.5601 14.5814 3.8501Z" fill="#264653"/>
<path id="Vector_2" d="M13.414 2.58533C13.168 2.34 12.8227 2.17933 12.1707 2.092C11.4993 2.00133 10.6093 2 9.33333 2H6.66667C5.39067 2 4.50067 2.00133 3.82933 2.092C3.17733 2.17933 2.832 2.33933 2.58533 2.586C2.34 2.832 2.17933 3.17733 2.092 3.82933C2.00133 4.50067 2 5.39067 2 6.66667V7.33333H6.70267C6.98533 7.33333 7.26 7.33333 7.48667 7.364C7.74267 7.398 8.034 7.482 8.276 7.724C8.518 7.966 8.602 8.25733 8.636 8.51333C8.66667 8.73933 8.66667 9.014 8.66667 9.29733V14H9.33333C10.6093 14 11.4993 13.9987 12.1707 13.9087C12.8227 13.8207 13.168 13.6607 13.414 13.414C13.66 13.168 13.8207 12.8227 13.9087 12.1707C13.9987 11.4993 14 10.6093 14 9.33333V6.66667C14 5.39067 13.9987 4.50067 13.9087 3.82933C13.8207 3.17733 13.6607 2.832 13.414 2.58533ZM13.414 2.58533L13.874 2.12533" stroke="#264653" stroke-width="2"/>
<path id="Vector_3" d="M10.6654 6.66667C11.4017 6.66667 11.9987 6.06971 11.9987 5.33333C11.9987 4.59695 11.4017 4 10.6654 4C9.92898 4 9.33203 4.59695 9.33203 5.33333C9.33203 6.06971 9.92898 6.66667 10.6654 6.66667Z" fill="#264653"/>
<path id="Vector_4" d="M5.33265 10.6667V10H5.99932V10.6667H5.33265ZM2.41598 13.8533C2.34807 13.9113 2.26921 13.9551 2.18406 13.982C2.09892 14.0089 2.00923 14.0185 1.92033 14.0101C1.83142 14.0017 1.74511 13.9755 1.66652 13.9331C1.58793 13.8907 1.51866 13.8329 1.46282 13.7632C1.40698 13.6935 1.36571 13.6133 1.34146 13.5274C1.31721 13.4414 1.31047 13.3515 1.32165 13.2629C1.33283 13.1743 1.36169 13.0889 1.40652 13.0116C1.45136 12.9344 1.51125 12.867 1.58265 12.8133L2.41598 13.8533ZM4.66598 14V10.6667H5.99932V14H4.66598ZM5.33265 11.3333H1.99932V10H5.33265V11.3333ZM5.74932 11.1867L2.41598 13.8533L1.58265 12.8133L4.91598 10.1467L5.74932 11.1867Z" fill="#264653"/>
</g>
</g>
</svg>
