<svg width="16" height="16" viewBox="0 0 16 16" fill="none" xmlns="http://www.w3.org/2000/svg">
<g id="nimbus:money">
<path id="Vector" d="M12.3204 8.00006C11.7611 7.53122 11.05 7.28235 10.3204 7.30006H5.63038C5.41654 7.30546 5.20382 7.26765 5.00493 7.18891C4.80605 7.11017 4.6251 6.9921 4.47291 6.84178C4.32073 6.69147 4.20044 6.51199 4.11924 6.31409C4.03805 6.11619 3.99762 5.90395 4.00038 5.69006C3.99517 5.60681 3.99517 5.52331 4.00038 5.44006C4.06344 5.05786 4.26385 4.71183 4.56397 4.46694C4.8641 4.22205 5.24331 4.09515 5.63038 4.11006H10.2504C10.6272 4.10973 10.992 4.24327 11.2795 4.48686C11.5671 4.73046 11.7588 5.06827 11.8204 5.44006H13.3204C13.2576 4.66899 12.9069 3.9498 12.3381 3.42545C11.7693 2.90111 11.024 2.61002 10.2504 2.61006H8.67038V0.310059H7.42038V2.61006H5.63038C4.85676 2.61002 4.11146 2.90111 3.54265 3.42545C2.97384 3.9498 2.62318 4.66899 2.56038 5.44006C2.55539 5.52332 2.55539 5.6068 2.56038 5.69006C2.56038 6.09322 2.63979 6.49243 2.79407 6.8649C2.94835 7.23737 3.17449 7.5758 3.45956 7.86088C4.0353 8.43661 4.81617 8.76006 5.63038 8.76006H10.3704C10.5825 8.75472 10.7936 8.7919 10.9911 8.86941C11.1887 8.94693 11.3687 9.0632 11.5206 9.21138C11.6725 9.35956 11.7932 9.53665 11.8756 9.73221C11.958 9.92777 12.0004 10.1378 12.0004 10.3501C12.0108 10.4632 12.0108 10.577 12.0004 10.6901C11.921 11.0419 11.7243 11.3563 11.4426 11.5816C11.161 11.807 10.8111 11.9298 10.4504 11.9301H5.75038C5.38968 11.9298 5.03978 11.807 4.75812 11.5816C4.47646 11.3563 4.27978 11.0419 4.20038 10.6901H2.69038C2.77632 11.4414 3.13568 12.1349 3.7 12.6383C4.26431 13.1418 4.99413 13.42 5.75038 13.4201H7.42038V15.6901H8.67038V13.4201H10.3704C11.1266 13.42 11.8565 13.1418 12.4208 12.6383C12.9851 12.1349 13.3444 11.4414 13.4304 10.6901V10.3501C13.4292 9.90089 13.3291 9.4575 13.1373 9.05136C12.9454 8.64522 12.6665 8.28629 12.3204 8.00006Z" fill="#264653"/>
</g>
</svg>
