<svg width="24" height="24" viewBox="0 0 24 24" fill="none" xmlns="http://www.w3.org/2000/svg">
<g id="uiw:user" clip-path="url(#clip0_174_3092)">
<path id="Vector" d="M11.9919 12.6876C12.7011 12.6876 13.4032 12.5479 14.0584 12.2766C14.7136 12.0052 15.3089 11.6074 15.8103 11.106C16.3117 10.6045 16.7095 10.0092 16.9809 9.35409C17.2522 8.69893 17.3919 7.99674 17.3919 7.2876C17.3919 6.57846 17.2522 5.87627 16.9809 5.22111C16.7095 4.56595 16.3117 3.97066 15.8103 3.46922C15.3089 2.96779 14.7136 2.57003 14.0584 2.29865C13.4032 2.02728 12.7011 1.8876 11.9919 1.8876C10.5597 1.8876 9.18624 2.45653 8.17354 3.46922C7.16084 4.48192 6.59192 5.85543 6.59192 7.2876C6.59192 8.71977 7.16084 10.0933 8.17354 11.106C9.18624 12.1187 10.5597 12.6876 11.9919 12.6876ZM12.0003 3.82257e-07C13.581 -0.000514502 15.1179 0.51913 16.3739 1.47876C17.6299 2.43838 18.5352 3.78466 18.9501 5.30987C19.3651 6.83508 19.2666 8.45445 18.6699 9.91813C18.0732 11.3818 17.0114 12.6085 15.6483 13.4088C20.0739 14.7408 23.3979 18.4704 23.9943 23.1024C24.0507 23.5428 23.7231 23.9424 23.2623 23.9964C22.8027 24.0504 22.3827 23.7384 22.3263 23.298C21.6783 18.27 17.3235 14.484 12.0423 14.484C6.73232 14.484 2.32112 18.2772 1.67432 23.298C1.61792 23.7384 1.19792 24.0504 0.738316 23.9964C0.277516 23.9424 -0.0500841 23.5428 0.0063159 23.1024C0.601516 18.4896 3.94352 14.7648 8.37632 13.4208C7.00914 12.6241 5.9425 11.3992 5.34132 9.93543C4.74014 8.4717 4.6379 6.85069 5.05042 5.32302C5.46293 3.79536 6.36722 2.44613 7.62346 1.48396C8.87971 0.521782 10.4179 0.000251114 12.0003 3.82257e-07Z" fill="#264653"/>
</g>
<defs>
<clipPath id="clip0_174_3092">
<rect width="24" height="24" fill="white"/>
</clipPath>
</defs>
</svg>
